<svg xmlns="http://www.w3.org/2000/svg" version="1.1"
    x="0px" y="0px" width="860px" height="1120px"
    viewBox="260 0 360 500">
    <path fill="currentColor" stroke="none"
        d="
M 561.15 207
L 543.1 244.15
Q 540.2 250.85 543.75 257.15
L 555.75 291.6
Q 573.45 284.9 573.5 265.6 573.95 178.15 606.2 147.9 576.9 174.4 561.15 207
M 363.4 348.7
Q 346.2 339.6 325.6 343.65 352.9 367.15 369 443.7 386.3 477.95 430.85 496.45 474.4 479.2 492.35 443.7 512.45 367.25 541.05 343.65 520.6 339.7 503 348.7 507.5 370.85 498.9 390.5 491.55 407.6 480.35 426 478.35 428.65 475.85 425.7 473.2 419.15 465.1 415.9 470.95 426.1 470.25 440.55
L 460.75 434.5 460.3 448.1 450.4 436.15 449.9 452.45 439.35 444.3 439.45 453.85 434.8 448.4 431.15 453.85 427.15 448.5 422 453.95 422 444.3 410.95 452.45 411.35 436.15 400.8 448.1 401.1 434.5 391.2 440.55
Q 391.2 426.1 397.7 415.9 389 419.25 386.2 426.15 384.1 429.1 382.1 426.3 371.75 407.7 365.25 390.45 357.7 370.85 363.4 348.7
M 327.15 256.45
Q 330.9 250.25 328.25 243.5
L 311.5 205.8
Q 296.85 172.55 268.6 145.05 299.7 176.5 297.05 263.85 296.45 283.1 313.95 290.5
L 327.15 256.45
M 591.15 35.45
L 576.7 0
Q 549.35 65.85 524.1 107.7 502 144.4 471.7 174.9 500.65 139.75 516.9 99.6 516.4 99.2 516 98.8 484.9 67.65 439.55 68 392 71.35 362.65 97.65 361.6 98.55 360.65 99.6 373.85 137.45 401.8 174.9 373.05 144.4 352.9 107.7 333.4 72.25 306.3 0
L 289.7 34.35
Q 295.15 140.1 331.45 241.45 335.15 251.1 330.8 259.95 326.4 268.7 319.4 291.2 312.3 313.65 317.35 333.35 333.8 333.35 342.15 334.55 348.6 335.35 355.8 336.95 377.1 344.4 370.7 366.6 369.35 388.8 390.05 413.65 380.15 384.05 388.45 373.5
L 393.7 392.75 397.45 379.75 404.45 399.1 408.4 388.5 412.95 406.3 418.1 392.65 424.15 410.95 431.15 392.15 437.15 410.95 444.2 392.65 448.65 406.3 454.15 388.5 457.55 399.1 465.5 379.75 468.6 392.75 474.85 373.5
Q 482.6 384.15 472.75 415.3 493.1 388.8 494.6 366.6 489.4 344.4 511.1 336.95 533.85 332.3 553.15 334.55 557.5 317.65 552.9 298.7 552.1 295.6 551.1 292.4 544.1 269.85 539.9 262.25 535.7 254.55 539.05 242.6 583.05 136.8 591.15 35.45
M 375.7 317.45
Q 344.8 312.6 340.7 300.2 336.65 287.7 336.95 275 381.1 271.2 419.95 287.05 424.2 301.6 410.65 309.55 397.65 318.75 375.7 317.45
M 424 370.55
Q 417.8 367.05 415.4 359.85 412.45 350.85 433.95 320 453.75 350.85 450.25 359.85 447.5 367.05 441.15 370.55 439.6 371.35 437.9 372
L 433.2 348.15 427.15 372
Q 425.5 371.35 424 370.55
M 458.4 309.55
Q 445.3 301.6 450.4 287.05 490.05 271.2 534.05 275 535.9 287.7 530.25 300.2 524.5 312.65 492.95 317.45 470.9 318.75 458.4 309.55
Z" />
</svg>